HIERARCHY
ROOT reference
{
  OFFSET 0 0 0
  CHANNELS 6 Xposition Yposition Zposition Zrotation Xrotation Yrotation
  JOINT Hips
  {
    OFFSET -3.77425 86.413 66.3847
    CHANNELS 6 Xposition Yposition Zposition Zrotation Xrotation Yrotation
    JOINT Spine
    {
      OFFSET 0 7.85829 0
      CHANNELS 6 Xposition Yposition Zposition Zrotation Xrotation Yrotation
      JOINT Spine1
      {
        OFFSET 0 25.1384 0
        CHANNELS 6 Xposition Yposition Zposition Zrotation Xrotation Yrotation
        JOINT Neck
        {
          OFFSET 0 25.0351 2.27592
          CHANNELS 6 Xposition Yposition Zposition Zrotation Xrotation Yrotation
          JOINT Head
          {
            OFFSET 0 13.4166 -1.91665
            CHANNELS 6 Xposition Yposition Zposition Zrotation Xrotation Yrotation
            End Site
            {
              OFFSET 0 23.9582 0
            }
          }
        }
        JOINT LeftShoulder
        {
          OFFSET 3.81534 24.0346 -0.234509
          CHANNELS 6 Xposition Yposition Zposition Zrotation Xrotation Yrotation
          JOINT LeftArm
          {
            OFFSET 8.62273 0 0
            CHANNELS 6 Xposition Yposition Zposition Zrotation Xrotation Yrotation
            JOINT LeftForeArm
            {
              OFFSET 31.7064 0 0
              CHANNELS 6 Xposition Yposition Zposition Zrotation Xrotation Yrotation
              JOINT LeftHand
              {
                OFFSET 23.7731 0 0
                CHANNELS 6 Xposition Yposition Zposition Zrotation Xrotation Yrotation
                End Site
                {
                  OFFSET 14.3749 0 0
                }
              }
            }
          }
        }
        JOINT RightShoulder
        {
          OFFSET -3.83608 24.0346 -0.234509
          CHANNELS 6 Xposition Yposition Zposition Zrotation Xrotation Yrotation
          JOINT RightArm
          {
            OFFSET -8.62273 0 0
            CHANNELS 6 Xposition Yposition Zposition Zrotation Xrotation Yrotation
            JOINT RightForeArm
            {
              OFFSET -31.7064 0 0
              CHANNELS 6 Xposition Yposition Zposition Zrotation Xrotation Yrotation
              JOINT RightHand
              {
                OFFSET -23.7731 0 0
                CHANNELS 6 Xposition Yposition Zposition Zrotation Xrotation Yrotation
                End Site
                {
                  OFFSET -14.3749 0 0
                }
              }
            }
          }
        }
      }
    }
    JOINT LeftUpLeg
    {
      OFFSET 9.58328 0 0
      CHANNELS 6 Xposition Yposition Zposition Zrotation Xrotation Yrotation
      JOINT LeftLeg
      {
        OFFSET 0 -36.4535 0
        CHANNELS 6 Xposition Yposition Zposition Zrotation Xrotation Yrotation
        JOINT LeftFoot
        {
          OFFSET 0 -41.4659 0
          CHANNELS 6 Xposition Yposition Zposition Zrotation Xrotation Yrotation
          JOINT LeftToeBase
          {
            OFFSET 0 -6.22913 14.3749
            CHANNELS 6 Xposition Yposition Zposition Zrotation Xrotation Yrotation
            End Site
            {
              OFFSET 0 0 3.83331
            }
          }
        }
      }
    }
    JOINT RightUpLeg
    {
      OFFSET -9.58328 0 0
      CHANNELS 6 Xposition Yposition Zposition Zrotation Xrotation Yrotation
      JOINT RightLeg
      {
        OFFSET 0 -36.4535 0
        CHANNELS 6 Xposition Yposition Zposition Zrotation Xrotation Yrotation
        JOINT RightFoot
        {
          OFFSET 0 -41.4659 0
          CHANNELS 6 Xposition Yposition Zposition Zrotation Xrotation Yrotation
          JOINT RightToeBase
          {
            OFFSET 0 -6.22913 14.3749
            CHANNELS 6 Xposition Yposition Zposition Zrotation Xrotation Yrotation
            End Site
            {
              OFFSET 0 0 3.83331
            }
          }
        }
      }
    }
  }
}
MOTION
Frames:	6
Frame Time:	0.004
0 0 0 0 0 -0 -13.4285 81.5401 -123.732 3.84643 2.59171 -4.73459 0 7.85829 0 -4.56655 -10.041 -0.205912 -3.55271e-015 25.1384 -1.42109e-014 -0.982966 11.9265 0.297956 0 25.0351 2.27592 -0.0783989 36.9398 -2.36173 0 13.4166 -1.91665 -4.3203 5.9013 -2.87245 3.81534 24.0346 -0.234509 -17.0226 24.7925 6.70194 8.62273 7.10543e-015 0 -25.0268 34.5239 -36.01 31.7064 0 1.42109e-014 -2.45732 -13.8824 -18.8093 23.7731 7.10543e-015 1.42109e-014 5.31521 -14.4322 -3.45042 -3.83608 24.0346 -0.234509 14.8429 33.5887 0.565351 -8.62273 0 -2.84217e-014 12.8785 44.2758 41.315 -31.7064 -1.42109e-014 0 -1.83891 -23.4302 20.8014 -23.7731 0 0 -6.06564 -22.8101 -6.36124 9.58328 -1.42109e-014 0 -1.96713 -18.4422 1.89998 0 -36.4535 0 -9.22922 28.6927 0.139469 0 -41.4659 -1.42109e-014 3.54651 -2.73416 1.82848 0 -6.22913 14.3749 -9.93923e-017 3.18055e-015 -7.95139e-016 -9.58328 1.42109e-014 0 -7.21166 0.780068 -0.110397 -7.10543e-015 -36.4535 -1.42109e-014 5.83873 44.7215 1.62654 -3.55271e-015 -41.4659 1.42109e-014 -0.527306 8.71372 -4.65664 -7.10543e-015 -6.22913 14.3749 4.41391e-032 -3.18055e-015 7.95139e-016 
0 0 0 0 0 -0 -13.4261 81.5939 -123.388 3.80376 2.56961 -4.59603 0 7.85829 0 -4.53494 -10.1127 -0.213916 0 25.1384 0 -1.06894 11.9821 0.299986 0 25.0351 2.27592 -0.0105849 36.9638 -2.39779 0 13.4166 -1.91665 -4.41251 5.98492 -2.90112 3.81534 24.0346 -0.234509 -16.991 24.7517 6.68562 8.62273 -7.10543e-015 2.84217e-014 -24.9345 34.4804 -36.198 31.7064 1.42109e-014 0 -2.44218 -13.864 -18.9223 23.7731 -1.42109e-014 0 5.18667 -14.4119 -3.49047 -3.83608 24.0346 -0.234509 14.9274 33.5592 0.459014 -8.62273 1.42109e-014 -2.84217e-014 12.8437 44.3091 41.3322 -31.7064 0 0 -1.83375 -23.3665 20.8118 -23.7731 0 -1.42109e-014 -5.92189 -22.7531 -6.38479 9.58328 0 0 -2.01075 -18.1017 1.93845 -8.88178e-016 -36.4535 1.42109e-014 -9.07471 28.5922 -0.109862 0 -41.4659 0 3.5369 -2.80728 1.79077 0 -6.22913 14.3749 8.94531e-016 1.59028e-015 -7.95139e-016 -9.58328 0 0 -7.11262 0.474598 -0.115359 7.10543e-015 -36.4535 0 5.99062 45.0921 1.50912 -3.55271e-015 -41.4659 -1.42109e-014 -0.45428 7.98449 -5.08082 0 -6.22913 14.3749 0 0 -7.95139e-016 
0 0 0 0 0 -0 -13.4238 81.6516 -123.049 3.77348 2.51004 -4.45856 3.55271e-015 7.85829 0 -4.53432 -10.1253 -0.224555 0 25.1384 0 -1.10959 11.9856 0.293815 0 25.0351 2.27592 -0.086661 36.8173 -2.32428 0 13.4166 -1.91665 -4.36149 6.41569 -2.8194 3.81534 24.0346 -0.234509 -17.0248 24.7741 6.70695 8.62273 0 0 -24.8548 34.3049 -36.3855 31.7064 -1.42109e-014 0 -2.47307 -13.7937 -19.0507 23.7731 -7.10543e-015 0 5.06038 -14.3465 -3.50997 -3.83608 24.0346 -0.234509 14.9499 33.5879 0.399418 -8.62273 0 0 12.9211 44.2976 41.2788 -31.7064 -1.42109e-014 0 -1.81722 -23.3288 20.8566 -23.7731 1.42109e-014 0 -5.98864 -22.7061 -6.54749 9.58328 1.42109e-014 0 -2.0628 -17.7161 1.96196 0 -36.4535 0 -8.93413 28.4439 -0.185154 0 -41.4659 1.42109e-014 3.56056 -2.80046 1.5922 0 -6.22913 14.3749 -3.97569e-016 -1.59028e-015 1.59028e-015 -9.58328 2.84217e-014 -1.42109e-014 -7.03159 0.165009 -0.129306 0 -36.4535 0 6.08285 45.5745 1.5478 0 -41.4659 0 -0.133734 7.20319 -5.63569 7.10543e-015 -6.22913 14.3749 7.95139e-016 9.54166e-015 -7.95139e-016 
0 0 0 0 0 -0 -13.4226 81.7147 -122.695 3.72033 2.46982 -4.29 0 7.85829 0 -4.50478 -10.1408 -0.257455 0 25.1384 0 -1.17317 11.9454 0.265389 0 25.0351 2.27592 -0.109108 36.8565 -2.3056 0 13.4166 -1.91665 -4.3588 6.58366 -2.79806 3.81534 24.0346 -0.234509 -17.036 24.7909 6.742 8.62273 -1.42109e-014 2.84217e-014 -24.8209 34.1385 -36.5346 31.7064 0 1.42109e-014 -2.56542 -13.6498 -19.2536 23.7731 2.13163e-014 0 5.52584 -14.2281 -3.33272 -3.83608 24.0346 -0.234509 15.0206 33.5736 0.338117 -8.62273 2.84217e-014 0 13.0209 44.2762 41.1918 -31.7064 0 -1.42109e-014 -1.76086 -23.2555 20.8358 -23.7731 0 0 -6.13516 -22.6426 -6.38394 9.58328 0 0 -2.08689 -17.3438 1.98834 8.88178e-016 -36.4535 0 -8.81949 28.3032 -0.521855 0 -41.4659 0 3.53439 -2.80325 1.64756 0 -6.22913 14.3749 -1.19271e-015 -3.18055e-015 -0 -9.58328 -2.84217e-014 0 -6.92312 -0.182948 -0.050483 7.10543e-015 -36.4535 0 6.33976 45.9971 1.37196 3.55271e-015 -41.4659 2.84217e-014 -0.923141 6.45249 -5.87087 0 -6.22913 14.3749 7.95139e-016 -3.18055e-015 -0 
0 0 0 0 0 -0 -13.4201 81.779 -122.353 3.66475 2.43833 -4.15614 0 7.85829 0 -4.49256 -10.1919 -0.279558 0 25.1384 0 -1.17912 11.9681 0.244769 0 25.0351 2.27592 -0.135157 36.8453 -2.3048 0 13.4166 -1.91665 -4.39623 6.74855 -2.79955 3.81534 24.0346 -0.234509 -17.0844 24.8345 6.78396 8.62273 -1.42109e-014 2.84217e-014 -24.809 33.902 -36.7041 31.7064 0 0 -2.55305 -13.5294 -19.3672 23.7731 -7.10543e-015 0 5.36761 -14.1041 -3.33491 -3.83608 24.0346 -0.234509 15.03 33.5431 0.309521 -8.62273 0 0 12.9133 44.4951 41.2301 -31.7064 2.84217e-014 0 -1.8948 -23.3417 20.8233 -23.7731 -7.10543e-015 0 -6.05277 -22.7067 -6.47107 9.58328 1.42109e-014 0 -2.09754 -16.9733 2.00378 0 -36.4535 1.42109e-014 -8.72452 28.1439 -0.729727 0 -41.4659 0 3.44532 -2.85408 1.6714 0 -6.22913 14.3749 1.09332e-015 1.59028e-015 -0 -9.58328 0 0 -6.75545 -0.440993 -0.271775 0 -36.4535 1.42109e-014 6.14244 46.1809 1.19983 3.55271e-015 -41.4659 0 -1.18195 5.78746 -5.78624 0 -6.22913 14.3749 7.95139e-016 -6.36111e-015 -0 
0 0 0 0 0 -0 -13.4173 81.847 -122.004 3.61653 2.38217 -4.03734 0 7.85829 0 -4.45574 -10.1979 -0.288845 0 25.1384 -1.42109e-014 -1.23962 11.9375 0.238828 0 25.0351 2.27592 -0.113913 36.9419 -2.31708 0 13.4166 -1.91665 -4.46657 6.7854 -2.81258 3.81534 24.0346 -0.234509 -17.0933 24.8424 6.80835 8.62273 -1.42109e-014 2.84217e-014 -24.7422 33.837 -36.867 31.7064 0 0 -2.58498 -13.5527 -19.4941 23.7731 7.10543e-015 1.42109e-014 5.43522 -14.14 -3.39188 -3.83608 24.0346 -0.234509 15.0578 33.583 0.260264 -8.62273 0 0 13.0008 44.4773 41.1669 -31.7064 -1.42109e-014 0 -1.9214 -23.3465 20.8639 -23.7731 -1.42109e-014 2.84217e-014 -5.96078 -22.7086 -6.52363 9.58328 0 0 -2.1542 -16.5281 2.03802 0 -36.4535 1.42109e-014 -8.55432 27.8958 -0.914738 0 -41.4659 0 3.4582 -2.90049 1.62091 0 -6.22913 14.3749 -9.93923e-017 0 7.95139e-016 -9.58328 -1.42109e-014 0 -6.71431 -0.745517 -0.305891 -7.10543e-015 -36.4535 1.42109e-014 6.35507 46.4704 1.32021 0 -41.4659 -1.42109e-014 -0.436357 5.13471 -6.51259 0 -6.22913 14.3749 0 0 -0 
